<mxfile host="app.diagrams.net" modified="2021-09-23T01:56:41.375Z" agent="5.0 (Macintosh; Intel Mac OS X 10_15_7) AppleWebKit/537.36 (KHTML, like Gecko) Chrome/93.0.4577.82 Safari/537.36" etag="SZACOTRCxZszhYJ_kYoi" version="15.3.0" type="github">
  <diagram id="eIbgbyqJxO0hXYDEdI3g" name="Page-1">
    <mxGraphModel dx="1186" dy="764" grid="1" gridSize="10" guides="1" tooltips="1" connect="1" arrows="1" fold="1" page="1" pageScale="1" pageWidth="827" pageHeight="1169" math="0" shadow="0">
      <root>
        <mxCell id="0" />
        <mxCell id="1" parent="0" />
        <mxCell id="ydOJ6Dpjxhb5--WCalFo-1" value="&lt;meta charset=&quot;utf-8&quot;&gt;&lt;b style=&quot;font-weight: normal&quot; id=&quot;docs-internal-guid-61f979d7-7fff-953f-4efd-42d6d71956e4&quot;&gt;&lt;span style=&quot;font-size: 14pt; font-family: simsun; color: rgb(0, 0, 0); background-color: transparent; font-weight: 400; font-style: normal; font-variant: normal; text-decoration: none; vertical-align: baseline;&quot;&gt;&lt;span style=&quot;border: none ; display: inline-block ; overflow: hidden ; width: 554px ; height: 367px&quot;&gt;&lt;img src=&quot;https://lh5.googleusercontent.com/-V4B_4JafgG1tgLzfNEkh0Fl2lDHvA2QJshkVkhcgnrVF-lqg0R9lw6cvELhXnEyUzB4zAJRxa9BK2TesoZRHYfLF6lWPCXYOqKtxrjiK4Lkdsl-KM9Hw8_J4RqtUZJfbeeqNs8=s0&quot; width=&quot;554&quot; height=&quot;367&quot; style=&quot;margin-left: 0px ; margin-top: 0px&quot;&gt;&lt;/span&gt;&lt;/span&gt;&lt;/b&gt;" style="text;whiteSpace=wrap;html=1;" vertex="1" parent="1">
          <mxGeometry x="139" y="60" width="550" height="390" as="geometry" />
        </mxCell>
      </root>
    </mxGraphModel>
  </diagram>
</mxfile>
